<svg width="420" height="100" viewBox="0 0 420 100" fill="none" xmlns="http://www.w3.org/2000/svg">
<path d="M186.284 56.8881C185.752 62.1035 184.022 66.7237 181.093 70.7486C178.218 74.7169 174.438 77.8065 169.753 80.0173C165.068 82.2282 159.717 83.3337 153.701 83.3337C146.993 83.3337 141.11 81.9448 136.052 79.167C130.994 76.3892 127.054 72.5343 124.233 67.6024C121.411 62.6137 120 56.8314 120 50.2554C120 43.6795 121.411 37.9255 124.233 32.9935C127.054 28.0049 130.994 24.1216 136.052 21.3439C141.11 18.5661 146.993 17.1772 153.701 17.1772C159.717 17.1772 165.068 18.2826 169.753 20.4935C174.438 22.7044 178.218 25.794 181.093 29.7622C184.022 33.7305 185.752 38.3507 186.284 43.6228H175.663C175.077 40.2214 173.8 37.3019 171.83 34.8643C169.913 32.4266 167.411 30.5559 164.323 29.252C161.235 27.8915 157.668 27.2112 153.621 27.2112C148.936 27.2112 144.863 28.1466 141.403 30.0173C137.995 31.8881 135.36 34.5525 133.496 38.0105C131.633 41.4686 130.701 45.5502 130.701 50.2554C130.701 54.9606 131.633 59.0423 133.496 62.5003C135.36 65.9584 137.995 68.6228 141.403 70.4935C144.863 72.3643 148.936 73.2996 153.621 73.2996C157.668 73.2996 161.235 72.6477 164.323 71.3439C167.411 70.04 169.913 68.1693 171.83 65.7316C173.8 63.2373 175.077 60.2894 175.663 56.8881H186.284Z" fill="white"/>
<path d="M219.435 83.3337C214.165 83.3337 209.479 82.2849 205.38 80.1874C201.28 78.0332 198.059 75.057 195.717 71.2588C193.374 67.4606 192.203 63.0389 192.203 57.9935C192.203 53.0049 193.294 48.6398 195.477 44.8983C197.713 41.1001 200.775 38.1523 204.661 36.0547C208.601 33.9006 213.1 32.8235 218.158 32.8235C223.215 32.8235 227.581 34.0423 231.255 36.4799C234.982 38.8609 237.857 42.2339 239.88 46.599C241.903 50.964 242.914 56.0944 242.914 61.9901H200.349V53.5718H237.723L232.533 56.718C232.373 53.5434 231.654 50.8223 230.376 48.5547C229.152 46.2872 227.475 44.5581 225.345 43.3677C223.269 42.1205 220.793 41.4969 217.918 41.4969C214.883 41.4969 212.221 42.1489 209.932 43.4527C207.696 44.7566 205.939 46.599 204.661 48.9799C203.383 51.3042 202.744 54.082 202.744 57.3133C202.744 60.8847 203.49 63.9743 204.981 66.582C206.525 69.1897 208.681 71.2021 211.449 72.6194C214.271 73.9799 217.599 74.6602 221.432 74.6602C224.893 74.6602 228.433 74.0933 232.053 72.9595C235.674 71.769 238.868 70.125 241.637 68.0275V76.0207C238.868 78.2883 235.487 80.074 231.494 81.3779C227.555 82.6817 223.535 83.3337 219.435 83.3337Z" fill="white"/>
<path d="M249.3 34.0139H259.682L262.397 51.5309V82.1432H252.015V49.4051L249.3 34.0139ZM285.317 33.6738V43.3677C284.146 43.0275 282.868 42.7724 281.484 42.6024C280.1 42.4323 278.795 42.3473 277.571 42.3473C274.643 42.3473 272.034 43.0275 269.745 44.3881C267.455 45.7486 265.645 47.7894 264.314 50.5105C263.036 53.1749 262.397 56.4629 262.397 60.3745L260.001 57.2282C260.214 53.8269 260.747 50.6523 261.599 47.7044C262.504 44.6999 263.728 42.0922 265.272 39.8813C266.87 37.6704 268.813 35.9414 271.102 34.6942C273.391 33.447 276.054 32.8235 279.088 32.8235C280.153 32.8235 281.244 32.9085 282.362 33.0786C283.481 33.1919 284.465 33.3903 285.317 33.6738Z" fill="white"/>
<path d="M314.738 83.3337C309.467 83.3337 304.782 82.2849 300.682 80.1874C296.583 78.0332 293.362 75.057 291.019 71.2588C288.677 67.4606 287.505 63.0389 287.505 57.9935C287.505 53.0049 288.597 48.6398 290.78 44.8983C293.016 41.1001 296.077 38.1523 299.964 36.0547C303.903 33.9006 308.402 32.8235 313.46 32.8235C318.518 32.8235 322.884 34.0423 326.557 36.4799C330.284 38.8609 333.159 42.2339 335.182 46.599C337.205 50.964 338.217 56.0944 338.217 61.9901H295.651V53.5718H333.026L327.835 56.718C327.675 53.5434 326.957 50.8223 325.679 48.5547C324.454 46.2872 322.777 44.5581 320.648 43.3677C318.571 42.1205 316.096 41.4969 313.221 41.4969C310.186 41.4969 307.524 42.1489 305.234 43.4527C302.998 44.7566 301.241 46.599 299.964 48.9799C298.686 51.3042 298.047 54.082 298.047 57.3133C298.047 60.8847 298.792 63.9743 300.283 66.582C301.827 69.1897 303.983 71.2021 306.752 72.6194C309.574 73.9799 312.901 74.6602 316.734 74.6602C320.195 74.6602 323.736 74.0933 327.356 72.9595C330.976 71.769 334.171 70.125 336.939 68.0275V76.0207C334.171 78.2883 330.79 80.074 326.797 81.3779C322.857 82.6817 318.837 83.3337 314.738 83.3337Z" fill="white"/>
<path d="M388.925 82.1432L387.168 64.286L389.245 58.0786L387.168 51.9561L388.925 34.0139H399.627L397.231 58.0786L399.627 82.1432H388.925ZM392.12 58.0786C391.108 63.1239 389.431 67.5457 387.089 71.3439C384.746 75.1421 381.844 78.0899 378.384 80.1874C374.976 82.2849 371.17 83.3337 366.964 83.3337C362.545 83.3337 358.632 82.2849 355.224 80.1874C351.817 78.0332 349.155 75.057 347.238 71.2588C345.321 67.4606 344.363 63.0672 344.363 58.0786C344.363 53.0332 345.321 48.6398 347.238 44.8983C349.155 41.1001 351.817 38.1523 355.224 36.0547C358.632 33.9006 362.545 32.8235 366.964 32.8235C371.17 32.8235 374.976 33.8722 378.384 35.9697C381.844 38.0672 384.746 41.0151 387.089 44.8133C389.484 48.5547 391.162 52.9765 392.12 58.0786ZM354.905 58.0786C354.905 61.3099 355.517 64.1727 356.742 66.667C358.019 69.1046 359.75 71.0321 361.932 72.4493C364.115 73.8099 366.618 74.4901 369.439 74.4901C372.314 74.4901 374.976 73.8099 377.425 72.4493C379.875 71.0321 382.031 69.1046 383.894 66.667C385.811 64.1727 387.328 61.3099 388.446 58.0786C387.328 54.8473 385.811 52.0128 383.894 49.5752C382.031 47.0808 379.875 45.1534 377.425 43.7928C374.976 42.3756 372.314 41.667 369.439 41.667C366.618 41.667 364.115 42.3756 361.932 43.7928C359.75 45.1534 358.019 47.0808 356.742 49.5752C355.517 52.0128 354.905 54.8473 354.905 58.0786Z" fill="white"/>
<path d="M409.618 16.667H420V82.1432H409.618V16.667Z" fill="white"/>
<path d="M176.173 53.8693H186.494L186.277 56.9401H175.654L176.173 53.8693Z" fill="white"/>
<path d="M176.157 46.5354H186.479L186.262 43.4646H175.638L176.157 46.5354Z" fill="white"/>
<g clip-path="url(#clip0_709_423)">
<path fill-rule="evenodd" clip-rule="evenodd" d="M0 50C0 22.3857 22.3857 0 50 0C77.6143 0 100 22.3857 100 50C100 77.6143 77.6143 100 50 100C22.3857 100 0 77.6143 0 50ZM50 4.54545C24.8962 4.54545 4.54545 24.8962 4.54545 50C4.54546 59.4139 7.40728 68.1595 12.3084 75.4141C13.3295 76.9255 14.439 78.3721 15.6296 79.7465C16.225 80.4338 16.8405 81.1031 17.4755 81.7533C25.7295 90.2066 37.2519 95.4545 50 95.4545C74.5155 95.4545 94.4982 76.0466 95.4209 51.7571C95.4282 51.5624 95.4345 51.3674 95.44 51.1721C95.45 50.7825 95.4545 50.3918 95.4545 50C95.4545 24.8962 75.1038 4.54545 50 4.54545ZM13.6364 50L24.6188 49.9998H75.3811C79.1675 49.9999 82.51 50.0005 86.3636 50.0005C86.3634 70.0833 70.0829 86.3636 50 86.3636C29.9169 86.3636 13.6364 70.0831 13.6364 50Z" fill="white"/>
<path opacity="0.6" fill-rule="evenodd" clip-rule="evenodd" d="M65.1871 40H34.8126L22.7271 40.0001C22.7271 42.3544 23.0254 44.639 23.5862 46.8182H76.4133C76.9742 44.639 77.2725 42.3544 77.2725 40.0001C72.1455 40.0005 69.0564 40.0001 65.1871 40Z" fill="white"/>
<path opacity="0.4" fill-rule="evenodd" clip-rule="evenodd" d="M68.1815 30.0001C68.1815 32.4112 67.7122 34.7126 66.86 36.8182H33.1395C32.2872 34.7126 31.8179 32.4112 31.8179 30.0001L49.9997 30L59.236 30.0001C62.26 30.0003 64.381 30.0003 68.1815 30.0001Z" fill="white"/>
</g>
<defs>
<clipPath id="clip0_709_423">
<rect width="100" height="100" fill="white"/>
</clipPath>
</defs>
</svg>
