<svg width="110" height="110" viewBox="0 0 110 110" fill="none" xmlns="http://www.w3.org/2000/svg">
<rect width="110" height="110" rx="55" fill="black"/>
<g clip-path="url(#clip0_715_423)">
<path fill-rule="evenodd" clip-rule="evenodd" d="M0 55C0 24.6243 24.6243 0 55 0C85.3757 0 110 24.6243 110 55C110 85.3757 85.3757 110 55 110C24.6243 110 0 85.3757 0 55ZM55 5C27.3858 5 5 27.3858 5 55C5.00001 65.3553 8.14801 74.9754 13.5392 82.9555C14.6624 84.618 15.8829 86.2093 17.1926 87.7212C17.8475 88.4772 18.5246 89.2134 19.223 89.9286C28.3025 99.2273 40.9771 105 55 105C81.967 105 103.948 83.6513 104.963 56.9328C104.971 56.7186 104.978 56.5041 104.984 56.2893C104.995 55.8608 105 55.431 105 55C105 27.3858 82.6142 5 55 5ZM15 55L27.0807 54.9998H82.9192C87.0842 54.9999 90.761 55.0005 95 55.0005C94.9997 77.0916 77.0912 95 55 95C32.9086 95 15 77.0914 15 55Z" fill="white"/>
<path opacity="0.6" fill-rule="evenodd" clip-rule="evenodd" d="M71.706 43.9998H38.2941L25 43.9999C25 46.5896 25.3282 49.1027 25.9451 51.4998H84.0549C84.6719 49.1027 85 46.5896 85 43.9999C79.3603 44.0003 75.9623 43.9999 71.706 43.9998Z" fill="white"/>
<path opacity="0.4" fill-rule="evenodd" clip-rule="evenodd" d="M75 32.9999C75 35.6521 74.4838 38.1837 73.5463 40.4998H36.4538C35.5163 38.1837 35 35.6521 35 32.9999L55 32.9998L65.16 32.9999C68.4863 33.0001 70.8194 33.0001 75 32.9999Z" fill="white"/>
</g>
<defs>
<clipPath id="clip0_715_423">
<rect width="110" height="110" fill="white"/>
</clipPath>
</defs>
</svg>
